<!-- Light theme digger logo-->
<svg fill="currentColor" viewBox="0 0 24 24" xmlns="http://www.w3.org/2000/svg"><path color="#d97706" d="M15.717 1.305c.538.445.755 1.337.477 1.97-.208.475-.6.73-1.138.674q-.202-.021-.558-.084c-.103-.018-.122-.066-.163-.153-.327-.698-.7-1.453-1.278-2.045a.013.013 0 0 1 .008-.021l1.042-.018q.037-.001.056-.034c.35-.625 1.026-.726 1.554-.289zm-.351 2.06a.868.593 77.5 0 0 .391-.976.868.593 77.5 0 0-.767-.718.868.593 77.5 0 0-.391.975.868.593 77.5 0 0 .767.719zM8.663 6.042q-.023.007-.026-.017c-.148-1.359.193-2.993 1.202-3.992 1.09-1.078 2.287-.332 2.951.722q.522.828.705 1.671a.024.024 0 0 1-.016.028z"/><path color="#111827" d="M15.729 5.244q.604.324 1.275.435c.392.065.804.05 1.22.024.568-.035.71.369.506.821-.4.887-1.024 1.612-1.724 2.276-.383.363-.834.769-1.12 1.157q-.707.959-.792 2.188-.097 1.414.176 2.75.094.456.26 1.115c.077.301.202.68.29 1.024a.031.032 62.5 0 1-.011.032q-.445.375-.815.823a.027.027 0 0 1-.046-.008q-.448-1.224-.858-2.456c-.067-.204-.171-.384-.393-.426-.253-.047-.51.173-.513.425q0 .099.09.353.44 1.244.874 2.493a.028.028 0 0 1-.019.036q-.227.06-.462.127-.452.13-.915.041a.06.06 0 0 1-.035-.02q-.11-.132-.3-.387-1.137-1.515-2.287-3.018c-.203-.264-.577-.23-.74.06-.128.23-.046.383.11.588q.997 1.304 2.01 2.606.045.059-.03.061-.77.025-1.438.405c-.61.346-1.029.905-1.398 1.492q-.013.021-.033.008-.524-.348-1.073-.636c-.544-.286-.974-.096-1.445.204q-.592.376-1.07.727-.02.013-.036-.001-.448-.384-.894-.76-.295-.249-.597-.381-.03-.013-.048-.058c-.823-1.965-.523-4.31.439-6.162q1.212-2.333 3.42-3.764c.317-.205.694-.412.942-.65q.55-.522.725-1.288.004-.02-.016-.014-.553.182-1.107.369c-.178.06-.33.076-.446-.08a.389.389 0 0 1 .059-.517q.063-.057.21-.106 4.595-1.51 9.18-3.054c.24-.081.455-.141.612.077.154.215.037.455-.2.535q-.768.26-1.536.517-.02.006 0 .017zm-1.947 1.792a.598.598 0 0 0-.598-.598.598.598 0 0 0-.599.598.598.598 0 0 0 .599.598.598.598 0 0 0 .598-.598z"/><path color="#111827" d="M8.712 21.496q.602-.728 1.191-1.466c.467-.583 1.102-.812 1.83-.813q.163 0 .576.06c.502.073.987.096 1.49.004.76-.138 1.554-.409 2.066-.99.344-.392.663-.794 1.141-.964q.703-.248 1.294.11.197.12.62.554 2.37 2.433 4.755 4.868.043.044-.019.044l-23.35.004a.02.02 0 0 1-.014-.036q1.325-1.341 2.684-2.66.095-.093.202-.005.893.735 1.782 1.464a.05.05 45.7 0 0 .063 0q.54-.428 1.12-.826c.26-.18.59-.454.919-.43q.145.012.384.175.633.433 1.233.91.019.015.034-.003z"/></svg>


